<svg xmlns="http://www.w3.org/2000/svg" xmlns:xlink="http://www.w3.org/1999/xlink" width="1148.5" height="1030.81" viewBox="0 0 1148.5 1030.81">
  <defs>
    <linearGradient id="linear-gradient" x1="1" y1="-0.218" x2="-2.493" y2="1.174" gradientUnits="objectBoundingBox">
      <stop offset="0" stop-color="#00b2f5"/>
      <stop offset="1" stop-color="#0019ff"/>
    </linearGradient>
    <filter id="Path_6" x="559.883" y="21.71" width="588.617" height="1009.1" filterUnits="userSpaceOnUse">
      <feOffset dy="3" input="SourceAlpha"/>
      <feGaussianBlur stdDeviation="49.5" result="blur"/>
      <feFlood flood-color="#03cbff" flood-opacity="0.071"/>
      <feComposite operator="in" in2="blur"/>
      <feComposite in="SourceGraphic"/>
    </filter>
  </defs>
  <g id="Group_1" data-name="Group 1" transform="translate(1506 1863)">
    <rect id="Rectangle_3" data-name="Rectangle 3" width="1000" height="1000" transform="translate(-1506 -1863)" fill="rgba(255,255,255,0)"/>
    <g id="share-svgrepo-com" transform="translate(-1506 -1863)">
      <g transform="matrix(1, 0, 0, 1, 0, 0)" filter="url(#Path_6)">
        <path id="Path_6-2" data-name="Path 6" d="M269.238,494.884a448.211,448.211,0,0,0,11.741-100.672c0-156.81-79.845-299.6-213.6-381.948A17.243,17.243,0,1,0,49.29,41.626C172.772,117.66,246.5,249.453,246.5,394.212a413.308,413.308,0,0,1-9.879,88.741,120.86,120.86,0,1,0,32.621,11.931Z" transform="translate(667.3 157.51)" opacity="0.99" fill="url(#linear-gradient)"/>
      </g>
      <path id="Path_7" data-name="Path 7" d="M658.121,333.241A411.5,411.5,0,0,1,500,364.586,414.6,414.6,0,0,1,206.6,242.31a120.659,120.659,0,1,0-27.621,20.983A449.058,449.058,0,0,0,500,399.069a445.42,445.42,0,0,0,171.31-33.983,17.234,17.234,0,1,0-13.19-31.845Z" transform="translate(0 600.931)" fill="url(#linear-gradient)"/>
      <path id="Path_8" data-name="Path 8" d="M19.1,538.155c.414.034.828.052,1.224.052a17.243,17.243,0,0,0,17.19-16.034C49.787,348.224,168.3,202.862,334.407,154.69c14.724,50.034,60.983,86.69,115.724,86.69A120.69,120.69,0,1,0,329.459,120.259c-182.431,50.81-312.931,209.4-326.345,399.5A17.223,17.223,0,0,0,19.1,538.155Z" transform="translate(49.869)" fill="url(#linear-gradient)"/>
    </g>
  </g>
</svg>
