<svg id="sad-svgrepo-com" xmlns="http://www.w3.org/2000/svg" width="490" height="490" viewBox="0 0 490 490">
  <circle id="Ellipse_2" data-name="Ellipse 2" cx="42.642" cy="42.642" r="42.642" transform="translate(115.009 132.647)" fill="#0004ff"/>
  <circle id="Ellipse_3" data-name="Ellipse 3" cx="42.642" cy="42.642" r="42.642" transform="translate(289.707 132.647)" fill="#0004ff"/>
  <rect id="Rectangle_2" data-name="Rectangle 2" width="183.75" height="30.625" transform="translate(153.125 317.435)" fill="#0004ff"/>
  <path id="Path_5" data-name="Path 5" d="M69.086,490H420.915A69.173,69.173,0,0,0,490,420.914V69.086A69.168,69.168,0,0,0,420.914,0H69.086A69.163,69.163,0,0,0,0,69.086V420.915A69.168,69.168,0,0,0,69.086,490ZM30.625,69.086A38.509,38.509,0,0,1,69.086,30.625H420.915a38.509,38.509,0,0,1,38.461,38.461V420.915a38.509,38.509,0,0,1-38.461,38.461H69.086a38.509,38.509,0,0,1-38.461-38.461Z" fill="#0004ff"/>
</svg>
