<svg xmlns="http://www.w3.org/2000/svg" viewBox="0 0 50 50" width="50" height="50" style="width: 100%; height: 100%; transform: translate3d(0px, 0px, 0px);" preserveAspectRatio="xMidYMid meet"><defs><clipPath id="__lottie_element_2"><rect width="50" height="50" x="0" y="0"></rect></clipPath></defs><g clip-path="url(#__lottie_element_2)"><g style="display: block;" transform="matrix(1,0,0,1,24.259000778198242,25.634000778198242)" opacity="1"><g opacity="1" transform="matrix(1,0,0,1,0.7409999966621399,-0.6340000033378601)"><path stroke-linecap="butt" stroke-linejoin="miter" fill-opacity="0" stroke-miterlimit="4" stroke="rgb(73,184,72)" stroke-opacity="1" stroke-width="2" d=" M0,-21.865999221801758 C12.067845344543457,-21.865999221801758 21.865999221801758,-12.067845344543457 21.865999221801758,0 C21.865999221801758,12.062999725341797 12.074999809265137,21.858999252319336 0.014000000432133675,21.865999221801758"></path></g></g><g style="display: none;" transform="matrix(1,0,0,1,23.75,25.125)" opacity="1"><g opacity="1" transform="matrix(1,0,0,1,0,0)"><path stroke-linecap="butt" stroke-linejoin="miter" fill-opacity="0" stroke-miterlimit="4" stroke="rgb(138,231,137)" stroke-opacity="1" stroke-width="4" d=" M-13,1 C-13,1 -4.625,10.5 -4.625,10.5 C-4.625,10.5 14.5,-9.25 14.5,-9.25"></path></g></g><g style="display: none;" transform="matrix(1,0,0,1,23.75,25.125)" opacity="1"><g opacity="1" transform="matrix(1,0,0,1,0,0)"><path stroke-linecap="butt" stroke-linejoin="miter" fill-opacity="0" stroke-miterlimit="4" stroke="rgb(99,226,98)" stroke-opacity="1" stroke-width="4" d=" M-13,1 C-13,1 -4.625,10.5 -4.625,10.5 C-4.625,10.5 14.5,-9.25 14.5,-9.25"></path></g></g><g style="display: none;" transform="matrix(1,0,0,1,23.75,25.125)" opacity="1"><g opacity="1" transform="matrix(1,0,0,1,0,0)"><path stroke-linecap="butt" stroke-linejoin="miter" fill-opacity="0" stroke-miterlimit="4" stroke="rgb(70,193,69)" stroke-opacity="1" stroke-width="4" d=" M-13,1 C-13,1 -4.625,10.5 -4.625,10.5 C-4.625,10.5 14.5,-9.25 14.5,-9.25"></path></g></g><g style="display: none;" transform="matrix(1,0,0,1,23.75,25.125)" opacity="1"><g opacity="1" transform="matrix(1,0,0,1,0,0)"><path stroke-linecap="butt" stroke-linejoin="miter" fill-opacity="0" stroke-miterlimit="4" stroke="rgb(39,144,38)" stroke-opacity="1" stroke-width="4" d=" M-13,1 C-13,1 -4.625,10.5 -4.625,10.5 C-4.625,10.5 14.5,-9.25 14.5,-9.25"></path></g></g><g style="display: none;" transform="matrix(1,0,0,1,24.259000778198242,25.634000778198242)" opacity="0.9999993455637429"><g opacity="1" transform="matrix(1,0,0,1,0.7409999966621399,-0.6340000033378601)"><path fill="rgb(73,184,72)" fill-opacity="1" d=" M0,-21.865999221801758 C12.067845344543457,-21.865999221801758 21.865999221801758,-12.067845344543457 21.865999221801758,0 C21.865999221801758,12.067845344543457 12.067845344543457,21.865999221801758 0,21.865999221801758 C-12.067845344543457,21.865999221801758 -21.865999221801758,12.067845344543457 -21.865999221801758,0 C-21.865999221801758,-12.067845344543457 -12.067845344543457,-21.865999221801758 0,-21.865999221801758z"></path></g></g><g style="display: none;" transform="matrix(1,0,0,1,23.75,25.125)" opacity="0.9999993455637429"><g opacity="1" transform="matrix(1,0,0,1,0,0)"><path stroke-linecap="butt" stroke-linejoin="miter" fill-opacity="0" stroke-miterlimit="4" stroke="rgb(255,255,255)" stroke-opacity="1" stroke-width="4" d=" M-13,1 C-13,1 -4.625,10.5 -4.625,10.5 C-4.625,10.5 14.5,-9.25 14.5,-9.25"></path></g></g></g></svg>