<svg xmlns="http://www.w3.org/2000/svg" width="84" height="84" viewBox="0 0 84 84">
  <g id="wrench" transform="translate(2 2)">
    <circle id="Ellipse_1" data-name="Ellipse 1" cx="40" cy="40" r="40" transform="translate(0 0)" fill="#0004ff" stroke="rgba(0,4,255,0.2)" stroke-width="4"/>
    <path id="Path_1" data-name="Path 1" d="M148.347,106.824a7.323,7.323,0,0,0-.312-1.25l-6.375,6.312-6-6-.812-.812,5.875-5.875a10.047,10.047,0,0,0-9,2.875,10.323,10.323,0,0,0-2.75,9.625l-17.125,17.188a10.306,10.306,0,0,0-12.5,11.75l5.875-5.875.813.812,6,6-6.375,6.375a9.128,9.128,0,0,0,1.25.312,10.047,10.047,0,0,0,9-2.875,10.323,10.323,0,0,0,2.75-9.625l17.188-17.188a10.305,10.305,0,0,0,12.5-11.75Z" transform="translate(-83.472 -83.325)" fill="#fff"/>
  </g>
</svg>
